HIERARCHY
ROOT Hips
{
    OFFSET   0.000000   0.000000   0.000000
    CHANNELS 6 Xposition Yposition Zposition Zrotation Xrotation Yrotation
    JOINT Chest
    {
        OFFSET   0.000000   8.007230   0.000000
        CHANNELS 3 Zrotation Xrotation Yrotation
        JOINT Chest2
        {
            OFFSET   0.000000  22.077100   0.000000
            CHANNELS 3 Zrotation Xrotation Yrotation
            JOINT Neck
            {
                OFFSET   0.000000  23.255100   0.000000
                CHANNELS 3 Zrotation Xrotation Yrotation
                JOINT Head
                {
                    OFFSET   0.000000  14.370100   1.956600
                    CHANNELS 3 Zrotation Xrotation Yrotation
                    End Site
                    {
                        OFFSET   0.000000  19.566000   0.000000
                    }
                }
            }
            JOINT LeftCollar
            {
                OFFSET   3.911900  19.017000  -0.467063
                CHANNELS 3 Zrotation Xrotation Yrotation
                JOINT LeftShoulder
                {
                    OFFSET  10.383700   0.000000   0.000000
                    CHANNELS 3 Zrotation Xrotation Yrotation
                    JOINT LeftElbow
                    {
                        OFFSET  26.662100   0.001193   0.000980
                        CHANNELS 3 Zrotation Xrotation Yrotation
                        JOINT LeftWrist
                        {
                            OFFSET  28.869000  -0.000059  -0.000082
                            CHANNELS 3 Zrotation Xrotation Yrotation
                            JOINT LeftFinger0
                            {
                                OFFSET   2.044650  -2.323450   3.252850
                                CHANNELS 3 Zrotation Xrotation Yrotation
                                JOINT LeftFinger01
                                {
                                    OFFSET   3.088130   0.000000   0.000000
                                    CHANNELS 3 Zrotation Xrotation Yrotation
                                    JOINT LeftFinger02
                                    {
                                        OFFSET   2.639460   0.000000   0.000000
                                        CHANNELS 3 Zrotation Xrotation Yrotation
                                        End Site
                                        {
                                            OFFSET   2.582190   0.000000   0.000000
                                        }
                                    }
                                }
                            }
                            JOINT LeftFinger1
                            {
                                OFFSET   8.364480   0.000000   3.252850
                                CHANNELS 3 Zrotation Xrotation Yrotation
                                JOINT LeftFinger11
                                {
                                    OFFSET   4.646930   0.000000   0.000000
                                    CHANNELS 3 Zrotation Xrotation Yrotation
                                    JOINT LeftFinger12
                                    {
                                        OFFSET   2.323470   0.000000   0.000000
                                        CHANNELS 3 Zrotation Xrotation Yrotation
                                        End Site
                                        {
                                            OFFSET   2.273050   0.000000   0.000000
                                        }
                                    }
                                }
                            }
                            JOINT LeftFinger2
                            {
                                OFFSET   8.364490   0.000016   1.078090
                                CHANNELS 3 Zrotation Xrotation Yrotation
                                JOINT LeftFinger21
                                {
                                    OFFSET   5.111610   0.000000   0.000000
                                    CHANNELS 3 Zrotation Xrotation Yrotation
                                    JOINT LeftFinger22
                                    {
                                        OFFSET   2.788150   0.000016   0.000000
                                        CHANNELS 3 Zrotation Xrotation Yrotation
                                        End Site
                                        {
                                            OFFSET   2.727660   0.000000   0.000000
                                        }
                                    }
                                }
                            }
                            JOINT LeftFinger3
                            {
                                OFFSET   7.899780   0.000015  -1.078090
                                CHANNELS 3 Zrotation Xrotation Yrotation
                                JOINT LeftFinger31
                                {
                                    OFFSET   4.646930   0.000000   0.000000
                                    CHANNELS 3 Zrotation Xrotation Yrotation
                                    JOINT LeftFinger32
                                    {
                                        OFFSET   2.323470   0.000000   0.000000
                                        CHANNELS 3 Zrotation Xrotation Yrotation
                                        End Site
                                        {
                                            OFFSET   2.273050   0.000000   0.000000
                                        }
                                    }
                                }
                            }
                            JOINT LeftFinger4
                            {
                                OFFSET   7.435090   0.000000  -3.252850
                                CHANNELS 3 Zrotation Xrotation Yrotation
                                JOINT LeftFinger41
                                {
                                    OFFSET   3.717550   0.000000   0.000000
                                    CHANNELS 3 Zrotation Xrotation Yrotation
                                    JOINT LeftFinger42
                                    {
                                        OFFSET   1.858770   0.000000   0.000000
                                        CHANNELS 3 Zrotation Xrotation Yrotation
                                        End Site
                                        {
                                            OFFSET   1.818440   0.000000   0.000000
                                        }
                                    }
                                }
                            }
                        }
                    }
                }
            }
            JOINT RightCollar
            {
                OFFSET  -3.911910  19.017000  -0.467062
                CHANNELS 3 Zrotation Xrotation Yrotation
                JOINT RightShoulder
                {
                    OFFSET -10.383700   0.000014   0.000000
                    CHANNELS 3 Zrotation Xrotation Yrotation
                    JOINT RightElbow
                    {
                        OFFSET -26.662100   0.001225   0.001091
                        CHANNELS 3 Zrotation Xrotation Yrotation
                        JOINT RightWrist
                        {
                            OFFSET -28.869000  -0.000020  -0.000085
                            CHANNELS 3 Zrotation Xrotation Yrotation
                            JOINT RightFinger0
                            {
                                OFFSET  -2.044650  -2.323490   3.252850
                                CHANNELS 3 Zrotation Xrotation Yrotation
                                JOINT RightFinger01
                                {
                                    OFFSET  -3.088130   0.000000   0.000000
                                    CHANNELS 3 Zrotation Xrotation Yrotation
                                    JOINT RightFinger02
                                    {
                                        OFFSET  -2.639460   0.000000   0.000000
                                        CHANNELS 3 Zrotation Xrotation Yrotation
                                        End Site
                                        {
                                            OFFSET  -2.582190   0.000000   0.000000
                                        }
                                    }
                                }
                            }
                            JOINT RightFinger1
                            {
                                OFFSET  -8.364480   0.000000   3.252850
                                CHANNELS 3 Zrotation Xrotation Yrotation
                                JOINT RightFinger11
                                {
                                    OFFSET  -4.646930   0.000000   0.000000
                                    CHANNELS 3 Zrotation Xrotation Yrotation
                                    JOINT RightFinger12
                                    {
                                        OFFSET  -2.323470   0.000000   0.000000
                                        CHANNELS 3 Zrotation Xrotation Yrotation
                                        End Site
                                        {
                                            OFFSET  -2.273050   0.000000   0.000000
                                        }
                                    }
                                }
                            }
                            JOINT RightFinger2
                            {
                                OFFSET  -8.364480   0.000000   1.078090
                                CHANNELS 3 Zrotation Xrotation Yrotation
                                JOINT RightFinger21
                                {
                                    OFFSET  -5.111620   0.000000   0.000000
                                    CHANNELS 3 Zrotation Xrotation Yrotation
                                    JOINT RightFinger22
                                    {
                                        OFFSET  -2.788160   0.000000   0.000000
                                        CHANNELS 3 Zrotation Xrotation Yrotation
                                        End Site
                                        {
                                            OFFSET  -2.727660   0.000000   0.000000
                                        }
                                    }
                                }
                            }
                            JOINT RightFinger3
                            {
                                OFFSET  -7.899780   0.000000  -1.078090
                                CHANNELS 3 Zrotation Xrotation Yrotation
                                JOINT RightFinger31
                                {
                                    OFFSET  -4.646930   0.000000   0.000000
                                    CHANNELS 3 Zrotation Xrotation Yrotation
                                    JOINT RightFinger32
                                    {
                                        OFFSET  -2.323470   0.000000   0.000000
                                        CHANNELS 3 Zrotation Xrotation Yrotation
                                        End Site
                                        {
                                            OFFSET  -2.273050   0.000000   0.000000
                                        }
                                    }
                                }
                            }
                            JOINT RightFinger4
                            {
                                OFFSET  -7.435090   0.000000  -3.252850
                                CHANNELS 3 Zrotation Xrotation Yrotation
                                JOINT RightFinger41
                                {
                                    OFFSET  -3.717550   0.000000   0.000000
                                    CHANNELS 3 Zrotation Xrotation Yrotation
                                    JOINT RightFinger42
                                    {
                                        OFFSET  -1.858760   0.000000   0.000000
                                        CHANNELS 3 Zrotation Xrotation Yrotation
                                        End Site
                                        {
                                            OFFSET  -1.818440   0.000000   0.000000
                                        }
                                    }
                                }
                            }
                        }
                    }
                }
            }
        }
    }
    JOINT LeftHip
    {
        OFFSET   9.783030   0.000000   0.000000
        CHANNELS 3 Zrotation Xrotation Yrotation
        JOINT LeftKnee
        {
            OFFSET   0.000063 -41.789100   0.000608
            CHANNELS 3 Zrotation Xrotation Yrotation
            JOINT LeftAnkle
            {
                OFFSET   0.000048 -41.133200  -0.000184
                CHANNELS 3 Zrotation Xrotation Yrotation
                JOINT LeftToe
                {
                    OFFSET   0.000000  -6.358960  14.674500
                    CHANNELS 3 Zrotation Xrotation Yrotation
                    End Site
                    {
                        OFFSET   0.000000   0.000000   3.913200
                    }
                }
            }
        }
    }
    JOINT RightHip
    {
        OFFSET  -9.783030   0.000000   0.000000
        CHANNELS 3 Zrotation Xrotation Yrotation
        JOINT RightKnee
        {
            OFFSET   0.000071 -41.789100   0.001239
            CHANNELS 3 Zrotation Xrotation Yrotation
            JOINT RightAnkle
            {
                OFFSET   0.000037 -41.133200  -0.000166
                CHANNELS 3 Zrotation Xrotation Yrotation
                JOINT RightToe
                {
                    OFFSET   0.000000  -6.358960  14.674500
                    CHANNELS 3 Zrotation Xrotation Yrotation
                    End Site
                    {
                        OFFSET   0.000000   0.000000   3.913200
                    }
                }
            }
        }
    }
}
MOTION
Frames: 5
Frame Time:   0.016667
  1.592130  89.276500   4.859020  -4.376970 -20.274000  -3.131690   1.974200  11.033600   1.924990   3.666970  22.122800   3.555400   0.915321   0.619654  -0.008331   1.504290   1.255740  -4.385770  -7.802290  -5.719040  -7.086480 -57.490800  22.410500 -56.498900  23.514300 -20.086600 -79.172500   3.062980  -6.959470 -12.313800  59.040400  54.333300 -108.293000   2.102400  -0.001261   0.010205   6.051200   0.000225   0.004267 -46.886900   3.145260  -2.940050 -38.427900  -0.004958  -0.005459 -28.329500   0.002295  -0.000356 -39.980300  -3.571670   4.254010 -54.335000  -0.004165   0.000149 -37.315000   0.010446   0.000311 -34.417700  -5.234050   7.583390 -52.147300  -0.001637  -0.002599 -34.730100   0.003044  -0.001348 -44.435200 -12.178200  12.142000 -68.603300   0.000000  -0.001763 -45.689800   0.002341  -0.002609   8.390980  -3.892210  12.868900  52.663000  12.315200  49.142000 -29.429800 -32.091200  72.883900  14.023200  -8.840400  25.399500 -59.029500  54.328500 108.279000 -12.226900   0.003669   0.000000 -11.113500  -0.001507   0.001171  45.662500  11.462300  10.988700  38.265300  -0.004620   0.000672  28.170900  -0.002000   0.002986  42.570000   4.042080   4.388350  54.431100  -0.002951  -0.001034  38.068900   0.006280  -0.001382  45.104600  -5.487800  -5.443320  54.446800   0.001103  -0.002688  38.754500   0.002389   0.009377  62.790500  -8.912360  -4.554100  94.718500  -0.003716  -0.000609  63.082500  -0.004822  -0.011570   1.947260  25.074300   5.057720   1.508400   0.052561   2.904980  -1.212110  -5.912140   0.705597  -0.000000   0.000000  -0.000000   6.614460  21.843600  -7.390060  -1.619690   5.791410  -6.215430  -1.721590  -8.196440  -0.967588   0.000000   0.000000  -0.000000
  1.590670  89.280000   4.845470  -4.369960 -20.230800  -3.146290   1.971290  11.001500   1.913270   3.663990  22.058300   3.532540   0.893599   0.588859  -0.008017   1.468590   1.193420  -4.351280  -7.816110  -5.722390  -7.104370 -57.396800  22.237100 -56.514100  23.458700 -19.877600 -79.053900   3.162540  -7.330190 -12.220900  59.040400  54.333300 -108.293000   1.324260  -0.001263   0.010336   5.662130   0.000207   0.004354 -46.651700   3.157990  -2.977560 -38.236300  -0.005048  -0.005480 -28.143200   0.002299  -0.000427 -39.995100  -3.571660   4.251900 -54.334600  -0.004211   0.000110 -37.319300   0.010594   0.000293 -34.309000  -5.229570   7.608100 -51.985500  -0.001676  -0.002628 -34.622400   0.003011  -0.001363 -44.243000 -12.202900  12.245000 -68.335600   0.000000  -0.001871 -45.511500   0.002283  -0.002612   8.399820  -3.864350  12.881900  52.489600  12.303400  49.164600 -29.412600 -32.009000  72.881500  14.044100  -8.831480  25.366600 -59.029500  54.328500 108.279000 -11.424400   0.003757  -0.000000 -10.712200  -0.001412   0.001030  45.529400  11.465900  11.041900  38.161000  -0.004613   0.000705  28.069700  -0.001942   0.002946  42.570400   4.039910   4.385940  54.431400  -0.002989  -0.000859  38.068900   0.006472  -0.001274  45.028600  -5.420030  -5.393950  54.447100   0.001094  -0.002709  38.734200   0.002466   0.009459  62.759600  -8.909970  -4.558880  94.672600  -0.003749  -0.000692  63.051900  -0.004812  -0.011744   1.941040  25.006600   5.049770   1.503360   0.090999   2.918390  -1.215100  -5.926250   0.716341  -0.000000   0.000000   0.000000   6.590670  21.817500  -7.369270  -1.597180   5.738450  -6.218460  -1.727380  -8.162920  -0.955869   0.000000   0.000000   0.000000
  1.588890  89.286000   4.829580  -4.365240 -20.187000  -3.165330   1.967830  10.967800   1.899840   3.660250  21.990400   3.506290   0.866502   0.551758  -0.007692   1.424020   1.118320  -4.320600  -7.828770  -5.723890  -7.122230 -57.307300  22.024800 -56.519900  23.413800 -19.654100 -78.902400   3.271460  -7.732530 -12.151000  59.040400  54.333300 -108.293000   0.750359  -0.001265   0.010466   5.375180   0.000187   0.004447 -46.409600   3.170720  -3.015080 -38.039400  -0.005135  -0.005498 -27.951700   0.002302  -0.000500 -39.997200  -3.571640   4.251600 -54.333500  -0.004260   0.000071 -37.319900   0.010741   0.000274 -34.122200  -5.222680   7.650610 -51.707600  -0.001714  -0.002655 -34.437300   0.002979  -0.001378 -44.056000 -12.226600  12.345500 -68.075100   0.000000  -0.001980 -45.338100   0.002224  -0.002618   8.400420  -3.811070  12.900500  52.290700  12.250800  49.198200 -29.367200 -31.915500  72.845600  14.063500  -8.810160  25.356700 -59.029400  54.328500 108.279000 -10.635700   0.003848   0.000000 -10.317800  -0.001316   0.000880  45.510400  11.466400  11.049500  38.146100  -0.004611   0.000741  28.055200  -0.001886   0.002910  42.573200   4.024750   4.369030  54.432200  -0.003026  -0.000682  38.069100   0.006661  -0.001167  44.975400  -5.384480  -5.365750  54.447500   0.001086  -0.002729  38.720100   0.002546   0.009539  62.729400  -8.907590  -4.563560  94.627600  -0.003778  -0.000786  63.022000  -0.004800  -0.011915   1.938630  24.939300   5.041850   1.496080   0.129434   2.938020  -1.218370  -5.940350   0.726134   0.000000   0.000000   0.000000   6.567170  21.791300  -7.347670  -1.573820   5.680250  -6.225350  -1.734570  -8.123640  -0.937041   0.000000   0.000000  -0.000000
  1.586560  89.292300   4.813170  -4.365900 -20.137300  -3.190170   1.964840  10.926000   1.875550   3.659850  21.906000   3.457790   0.825872   0.517566  -0.007341   1.357110   1.049010  -4.264300  -7.827540  -5.692490  -7.074830 -57.193000  21.769500 -56.544200  23.401200 -19.412600 -78.687900   3.393430  -8.011840 -12.110500  59.040400  54.333300 -108.293000   0.588460  -0.001266   0.010583   5.294230   0.000159   0.004556 -46.286800   3.152610  -3.006050 -37.938300  -0.005210  -0.005516 -27.853700   0.002303  -0.000573 -39.971000  -3.571590   4.255240 -54.332700  -0.004315   0.000036 -37.312200   0.010891   0.000246 -33.951000  -5.215760   7.689690 -51.452800  -0.001754  -0.002683 -34.267600   0.002954  -0.001395 -43.895100 -12.245600  12.432400 -67.851100   0.000000  -0.002092 -45.188900   0.002159  -0.002628   8.384550  -3.689860  12.949900  52.050000  12.108100  49.276500 -29.305600 -31.763800  72.721400  13.946900  -8.628880  25.346900 -59.029400  54.328500 108.279000  -9.880310   0.003925  -0.000000  -9.940120  -0.001222   0.000729  45.619100  11.463700  11.006300  38.231200  -0.004618   0.000781  28.137900  -0.001831   0.002877  42.592300   3.907280   4.243140  54.432900  -0.003059  -0.000498  38.070300   0.006842  -0.001066  44.894400  -5.418050  -5.424900  54.448000   0.001080  -0.002747  38.701700   0.002627   0.009617  62.643100  -8.900620  -4.576890  94.499200  -0.003803  -0.000839  62.936500  -0.004788  -0.012079   1.942010  24.893600   5.040010   1.484740   0.105105   2.961220  -1.220450  -5.919920   0.731761  -0.000000   0.000000   0.000000   6.550670  21.759300  -7.326320  -1.554410   5.619410  -6.236750  -1.745110  -8.078680  -0.907212   0.000000   0.000000  -0.000000
  1.582850  89.298700   4.794310  -4.372010 -20.084800  -3.221870   1.961640  10.879900   1.851620   3.658980  21.813100   3.410150   0.779706   0.483232  -0.006973   1.281180   0.979411  -4.210110  -7.816860  -5.638610  -7.001050 -57.063100  21.484300 -56.574200  23.409600 -19.151400 -78.450100   3.543390  -8.266930 -12.075500  59.040400  54.333300 -108.293000   0.507083  -0.001268   0.010700   5.253550   0.000128   0.004671 -46.176200   3.092770  -2.964500 -37.845700  -0.005282  -0.005531 -27.764000   0.002304  -0.000647 -39.867100  -3.571490   4.270040 -54.329300  -0.004372   0.000000 -37.280900   0.011038   0.000219 -33.793300  -5.209460   7.725760 -51.218000  -0.001792  -0.002708 -34.111200   0.002928  -0.001414 -43.806100 -12.257100  12.480400 -67.727100   0.000000  -0.002203 -45.106300   0.002095  -0.002635   8.361160  -3.542260  12.992300  51.815900  11.870000  49.359800 -29.253300 -31.526400  72.530300  13.797000  -8.444340  25.357200 -59.029400  54.328500 108.279000  -9.469580   0.004000  -0.000000  -9.734780  -0.001130   0.000578  45.811000  11.458800  10.930100  38.381600  -0.004635   0.000823  28.284200  -0.001777   0.002848  42.622900   3.761180   4.077230  54.434400  -0.003090  -0.000319  38.077800   0.007021  -0.000959  44.842900  -5.479130  -5.484320  54.448300   0.001073  -0.002763  38.691200   0.002712   0.009691  62.582700  -8.895730  -4.586200  94.409400  -0.003825  -0.001010  62.876700  -0.004772  -0.012240   1.946290  24.847000   5.038330   1.471980   0.080776   2.988900  -1.222540  -5.899490   0.735295  -0.000000   0.000000   0.000000   6.538470  21.721100  -7.310580  -1.537500   5.561610  -6.244270  -1.755430  -8.033150  -0.872010   0.000000   0.000000   0.000000
